<?xml version="1.0" standalone="no"?>
<!DOCTYPE svg PUBLIC "-//W3C//DTD SVG 20010904//EN"
 "http://www.w3.org/TR/2001/REC-SVG-20010904/DTD/svg10.dtd">
<svg version="1.0" xmlns="http://www.w3.org/2000/svg"
 width="512.000000pt" height="512.000000pt" viewBox="0 0 512.000000 512.000000"
 preserveAspectRatio="xMidYMid meet">

<g transform="translate(0.000000,512.000000) scale(0.100000,-0.100000)"
fill="#000000" stroke="none">
<path d="M2390 5039 c-611 -69 -1162 -463 -1448 -1035 -93 -186 -168 -432
-192 -624 -8 -66 -12 -459 -13 -1285 l-2 -1190 -22 -57 c-67 -177 -227 -295
-436 -323 -27 -4 -57 -15 -68 -26 -52 -52 8 -170 136 -266 134 -101 269 -146
435 -146 162 1 286 37 411 123 32 22 60 40 62 40 2 0 25 -20 52 -44 199 -184
521 -181 720 5 l60 57 70 -67 c117 -111 242 -157 400 -148 161 8 300 79 392
200 l22 29 57 -47 c109 -88 211 -126 345 -126 48 0 109 5 135 12 116 28 241
112 305 205 l30 44 62 -51 c76 -62 199 -123 292 -145 98 -23 294 -15 385 16
128 43 214 99 308 199 81 85 87 103 50 145 -16 19 -46 32 -101 46 -214 54
-354 205 -377 410 -6 50 -10 522 -10 1136 0 666 -4 1091 -11 1160 -81 837
-640 1512 -1414 1708 -199 50 -438 67 -635 45z m420 -164 c133 -19 260 -53
389 -104 501 -199 891 -653 1031 -1199 56 -220 53 -152 60 -1442 6 -1103 8
-1200 24 -1254 53 -179 157 -301 337 -396 l70 -37 -53 -36 c-172 -118 -438
-120 -614 -3 -28 19 -73 60 -100 92 -87 102 -101 114 -131 114 -42 0 -69 -24
-82 -73 -17 -71 -84 -161 -152 -206 -73 -49 -122 -64 -214 -64 -128 -1 -229
53 -315 170 -82 112 -133 109 -194 -12 -43 -86 -103 -145 -184 -183 -50 -24
-70 -27 -157 -27 -93 0 -105 2 -166 32 -78 39 -136 97 -178 181 -32 63 -44 72
-95 72 -37 0 -58 -20 -99 -91 -34 -60 -96 -115 -166 -147 -79 -38 -202 -43
-284 -12 -71 27 -131 71 -175 130 -61 84 -69 90 -105 90 -34 0 -67 -26 -80
-62 -9 -24 -80 -75 -162 -114 -172 -83 -405 -61 -560 53 -49 36 -49 36 -25 46
236 93 361 211 436 412 18 47 19 112 25 1290 6 1356 3 1278 66 1505 117 421
382 791 728 1016 213 138 467 233 705 263 107 14 308 12 420 -4z"/>
<path d="M1632 3728 c-28 -35 -55 -145 -55 -228 0 -194 102 -353 281 -438 65
-31 86 -36 172 -40 120 -6 206 17 298 78 195 130 264 378 169 603 l-16 37
-419 0 c-324 0 -422 -3 -430 -12z"/>
<path d="M2786 3718 c-71 -112 -69 -310 5 -448 58 -109 191 -212 310 -239 121
-28 270 -4 368 58 206 132 284 382 189 603 l-20 48 -419 0 -419 0 -14 -22z"/>
<path d="M2256 2909 c-23 -18 -26 -27 -26 -85 l0 -64 -64 0 c-107 0 -146 -23
-146 -88 0 -48 31 -66 124 -72 l81 -5 3 -67 c3 -59 6 -70 29 -88 33 -25 63
-25 96 0 23 18 26 29 29 88 l3 67 110 0 110 0 5 -58 c6 -67 24 -87 75 -87 46
0 73 34 77 95 l3 50 98 3 97 3 0 -44 c0 -62 29 -97 80 -97 51 0 80 35 80 96
l0 44 40 0 c30 0 47 7 65 25 50 49 16 121 -63 132 l-42 6 0 43 c0 57 -16 90
-51 105 -22 9 -36 9 -58 0 -35 -15 -51 -48 -51 -106 l0 -45 -100 0 -100 0 0
60 c0 72 -21 100 -75 100 -54 0 -75 -28 -75 -100 l0 -60 -115 0 -115 0 0 64
c0 58 -3 67 -26 85 -15 12 -37 21 -49 21 -12 0 -34 -9 -49 -21z"/>
<path d="M4092 1375 c-23 -10 -33 -23 -41 -52 -14 -49 -14 -283 -1 -319 22
-57 83 -72 125 -29 25 24 25 27 25 190 0 92 -4 175 -10 185 -15 28 -61 40 -98
25z"/>
<path d="M4131 764 c-12 -15 -21 -37 -21 -49 0 -23 47 -100 80 -130 28 -25 75
-23 105 5 37 35 32 68 -20 139 -42 57 -48 61 -84 61 -31 0 -44 -6 -60 -26z"/>
</g>
</svg>
