<?xml version="1.0" standalone="no"?>
<!DOCTYPE svg PUBLIC "-//W3C//DTD SVG 20010904//EN"
 "http://www.w3.org/TR/2001/REC-SVG-20010904/DTD/svg10.dtd">
<svg version="1.0" xmlns="http://www.w3.org/2000/svg"
 width="512.000000pt" height="512.000000pt" viewBox="0 0 512.000000 512.000000"
 preserveAspectRatio="xMidYMid meet">

<g transform="translate(0.000000,512.000000) scale(0.100000,-0.100000)"
fill="#000000" stroke="none">
<path d="M2530 4950 c-411 -43 -804 -182 -1130 -401 -164 -111 -258 -189 -400
-335 -194 -200 -308 -361 -430 -609 -119 -240 -188 -463 -227 -724 -21 -143
-23 -474 -4 -611 109 -792 582 -1466 1284 -1830 246 -128 518 -216 792 -256
167 -25 525 -25 685 0 273 42 510 115 745 231 407 200 735 491 980 870 47 73
59 100 63 141 5 56 -10 94 -50 131 -19 18 -707 411 -1550 887 -109 61 -197
113 -197 116 0 3 389 225 864 495 516 291 878 502 897 522 27 28 32 42 35 90
4 54 1 63 -41 134 -98 166 -277 382 -431 520 -379 339 -827 546 -1345 619
-103 14 -437 21 -540 10z m550 -335 c472 -73 895 -293 1225 -636 86 -90 195
-223 195 -240 0 -4 -71 -48 -157 -97 -87 -49 -498 -282 -913 -517 -457 -258
-768 -440 -787 -460 -56 -59 -56 -151 0 -210 20 -21 268 -167 637 -376 333
-188 684 -387 780 -442 96 -55 235 -133 308 -175 72 -41 132 -78 132 -81 0
-15 -111 -152 -189 -234 -571 -601 -1453 -818 -2241 -551 -747 253 -1297 911
-1405 1679 -54 386 -2 760 157 1121 100 226 238 425 427 615 363 364 794 565
1336 623 81 8 393 -4 495 -19z"/>
<path d="M2601 4145 c-255 -72 -410 -332 -346 -580 56 -214 251 -366 470 -365
125 1 240 49 329 137 98 98 146 210 146 343 0 202 -128 385 -318 452 -75 27
-209 33 -281 13z"/>
</g>
</svg>
